<?xml version="1.0" encoding="UTF-8"?>
<!DOCTYPE svg PUBLIC "-//W3C//DTD SVG 1.1//EN" "http://www.w3.org/Graphics/SVG/1.1/DTD/svg11.dtd">
<!-- Creator: CorelDRAW -->
<svg xmlns="http://www.w3.org/2000/svg" xml:space="preserve" width="26.6588mm" height="6.6042mm" version="1.1" style="shape-rendering:geometricPrecision; text-rendering:geometricPrecision; image-rendering:optimizeQuality; fill-rule:evenodd; clip-rule:evenodd"
viewBox="0 0 2658.24 658.53"
 xmlns:xlink="http://www.w3.org/1999/xlink"
 xmlns:xodm="http://www.corel.com/coreldraw/odm/2003">
 <defs>
  <style type="text/css">
   <![CDATA[
    .fil0 {fill:black;fill-rule:nonzero}
   ]]>
  </style>
 </defs>
 <g id="Слой_x0020_1">
  <metadata id="CorelCorpID_0Corel-Layer"/>
  <path class="fil0" d="M2245.51 653.89l0 -484.16 7.42 0 96.46 154.89 0 329.26 -103.88 0zm0 -582.48l0 -66.78 86.26 0 326.47 524.04 0 125.21 -50.08 0 -362.66 -582.48zm308.86 204.05l0 -270.83 103.87 0 0 425.73 -7.42 0 -96.45 -154.89z"/>
  <polygon class="fil0" points="1832.76,653.89 1832.76,4.64 2170.38,4.64 2170.38,106.66 1936.65,106.66 1936.65,279.18 2083.19,279.18 2083.19,383.06 1936.65,383.06 1936.65,550.94 2170.38,550.94 2170.38,653.89 "/>
  <polygon class="fil0" points="1377.36,105.74 1377.36,4.64 1778.97,4.64 1778.97,105.74 1630.56,105.74 1630.56,653.89 1526.68,653.89 1526.68,105.74 "/>
  <path class="fil0" d="M932.15 653.89l0 -649.25 103.88 0 0 649.25 -103.88 0zm151.19 -273.61l0 -92.75 51.94 0c53.8,0 83.48,-25.66 89.04,-76.98 0.61,-5.56 0.93,-10.83 0.93,-15.77 0,-51.94 -23.5,-82.54 -70.5,-91.82 -8.66,-1.24 -17.62,-1.85 -26.89,-1.85l-44.52 0 0 -96.46 56.58 0c82.24,1.85 137.58,32.46 166.02,91.82 11.75,24.74 17.62,53.18 17.62,85.33 -0.62,68.63 -21.64,118.41 -63.07,149.33 32.16,18.55 52.56,51.63 61.21,99.24 1.24,8.04 2.16,15.46 2.79,22.26l15.76 201.27 -96.46 0 -13.91 -165.1c-4.96,-51.94 -18.87,-84.72 -41.74,-98.32 -13.6,-6.8 -30.61,-10.2 -51.01,-10.2l-53.8 0z"/>
  <path class="fil0" d="M442.43 473.02l0 -305.14c0,-32.78 13.91,-66.16 41.74,-100.17 37.09,-44.52 84.09,-67.09 140.97,-67.71l0 102.95c-32.15,0.62 -56.27,17.93 -72.34,51.94 -4.95,11.13 -7.42,20.4 -7.42,27.82l0 290.31c0,33.39 17.31,58.13 51.94,74.21 10.51,4.95 19.47,7.42 26.89,7.42l0 103.88c-35.24,0 -70.49,-12.67 -105.74,-38.03 -50.09,-37.09 -75.43,-86.25 -76.05,-147.48zm232.8 185.51l0 -103.88c16.08,0 32.78,-7.42 50.09,-22.26 18.56,-16.7 28.14,-36.49 28.76,-59.37l0 -290.31c0,-18.55 -8.04,-36.49 -24.12,-53.8 -15.46,-16.69 -33.69,-25.35 -54.72,-25.97l0 -102.95c62.45,0 112.54,26.89 150.26,80.69 21.64,30.92 32.47,59.98 32.47,87.19l0 305.14c0,68.64 -30.61,121.2 -91.83,157.69 -32.16,18.55 -62.45,27.82 -90.9,27.82z"/>
  <path class="fil0" d="M-0 653.89l0 -649.25 103.88 0 0 649.25 -103.88 0zm151.19 -293.1l0 -101.09 62.14 0c45.14,0 69.57,-21.96 73.28,-65.86 0,-3.71 0,-7.42 0,-11.13 -4.33,-48.85 -28.76,-74.51 -73.28,-76.98l-62.14 0 0 -101.1 70.5 0c112.54,1.85 169.11,60.6 169.73,176.22 0,89.66 -28.45,145.62 -85.33,167.88 -23.49,8.04 -51.63,12.06 -84.4,12.06 -1.24,0 -24.74,0 -70.5,0z"/>
 </g>
</svg>
